PathFileType	4	(X/Y/Z)	./resultDataOpenSim/trcMotMarkerGrf/sub10/qtm-05-08.trc
DataRate	CameraRate	NumFrames	NumMarkers	Units	OrigDataRate	OrigDataStartFrame	OrigNumFrames
250.000000	250.000000	11	24	m	250.000000	133	529
Frame#	Time	L.Toe.Tip			R.Toe.Tip			L.Ankle.Lat			R.Ankle.Lat			L.Ankle.Med			R.Ankle.Med			L.Heel			R.Heel			L.Knee.Lat			R.Knee.Lat			L.Knee.Med			R.Knee.Med			L.Thigh.Upper			R.Thigh.Upper			L.ASIS			R.ASIS			V.Sacral			L.Acromium			R.Acromium			C7			L.Elbow			R.Elbow			L.Wrist.Lat			R.Wrist.Lat
		X1	Y1	Z1	X2	Y2	Z2	X3	Y3	Z3	X4	Y4	Z4	X5	Y5	Z5	X6	Y6	Z6	X7	Y7	Z7	X8	Y8	Z8	X9	Y9	Z9	X10	Y10	Z10	X11	Y11	Z11	X12	Y12	Z12	X13	Y13	Z13	X14	Y14	Z14	X15	Y15	Z15	X16	Y16	Z16	X17	Y17	Z17	X18	Y18	Z18	X19	Y19	Z19	X20	Y20	Z20	X21	Y21	Z21	X22	Y22	Z22	X23	Y23	Z23	X24	Y24	Z24

133	0.528	-0.44128495	0.067156996	-0.13987832	-0.73648925	0.040591298	0.054457344	-0.57207836	0.099257611	-0.13927152	-0.87860382	0.053556571	0.082107149	-0.5480539	0.11624053	-0.059576102	-0.85731548	0.081303599	-0.00093020689	-0.62677692	0.0681535	-0.082323808	-0.92664241	0.028182863	0.032018935	-0.51871623	0.48719651	-0.15224442	-0.78048777	0.4450788	0.13375789	-0.48868388	0.46089514	-0.036190577	-0.77029073	0.44907375	0.0032871526	-0.66898037	0.8401637	-0.19111159	-0.72456989	0.85612383	0.19097017	-0.62472973	0.94664221	-0.11784296	-0.64134365	0.94664637	0.12704027	-0.83686448	0.96172079	-0.0045530162	-0.68168672	1.4165227	-0.16054147	-0.70424547	1.4140907	0.1637747	-0.77505494	1.4447998	-0.0087280973	-0.81070452	1.0979183	-0.22881951	-0.75249385	1.0599575	0.22473575	-0.67509381	0.89125421	-0.24879269	-0.55110561	0.91538673	0.25313333
134	0.532	-0.42360868	0.067129457	-0.13858122	-0.73640329	0.040688706	0.054530369	-0.55534045	0.096646492	-0.13917515	-0.87855735	0.053562466	0.081919235	-0.53231534	0.11444491	-0.059361476	-0.85719501	0.081255894	-0.0010095413	-0.60948863	0.064623227	-0.082293555	-0.92669505	0.028306262	0.031574596	-0.51262391	0.48608495	-0.15228141	-0.7788215	0.44451616	0.13348536	-0.48274109	0.46028616	-0.036079303	-0.76822262	0.44866715	0.0031761991	-0.66317069	0.83958035	-0.19120757	-0.72104867	0.8554298	0.19085514	-0.61886234	0.9458162	-0.11760585	-0.6366263	0.94573465	0.12730695	-0.83247151	0.96131526	-0.0046872082	-0.6769013	1.4155619	-0.16056974	-0.69943232	1.413398	0.16371067	-0.77017414	1.4439668	-0.0087844983	-0.80715681	1.0975061	-0.2294298	-0.74562968	1.0588081	0.22503016	-0.67219128	0.89034574	-0.25004824	-0.54236874	0.91671475	0.25198252
135	0.536	-0.40595914	0.067059289	-0.13711128	-0.73644386	0.040724853	0.054494771	-0.53860255	0.094172091	-0.13910729	-0.87853676	0.053575096	0.08175834	-0.51667619	0.11286897	-0.059136058	-0.85710906	0.081194595	-0.0011432986	-0.59219966	0.061448301	-0.08235785	-0.92674059	0.028387689	0.031267763	-0.50659189	0.48483977	-0.15239199	-0.77686708	0.44388775	0.13322653	-0.47692782	0.45953609	-0.035999437	-0.76605616	0.44825587	0.0030066334	-0.65735388	0.83891751	-0.19128828	-0.7175077	0.85471941	0.19076828	-0.61287339	0.94491648	-0.11735109	-0.63191124	0.9448066	0.1275472	-0.82813845	0.96092876	-0.0048030188	-0.67202051	1.4145299	-0.16059883	-0.69460245	1.4126392	0.16364118	-0.76528607	1.4430731	-0.0088480389	-0.80370302	1.0970378	-0.23028216	-0.73877458	1.0576151	0.22533154	-0.66927445	0.88936564	-0.25129978	-0.53368144	0.91799601	0.25081683
136	0.54	-0.38835795	0.066941354	-0.13545647	-0.73658271	0.040684644	0.05437972	-0.52185336	0.091862504	-0.13905846	-0.87860312	0.053612523	0.081680321	-0.50103954	0.11149314	-0.058830074	-0.85701479	0.08112539	-0.0013089258	-0.57503317	0.058621283	-0.082581063	-0.92677986	0.028434207	0.031082712	-0.50059678	0.48346579	-0.15256826	-0.77501519	0.44323413	0.13301282	-0.4712301	0.45864865	-0.03594679	-0.76379655	0.44781795	0.0027941784	-0.65140979	0.83818665	-0.1913506	-0.71393562	0.85398655	0.19069939	-0.60692943	0.94394852	-0.11710718	-0.62733313	0.94383459	0.12776781	-0.82378998	0.96056472	-0.0048895946	-0.66701744	1.4134291	-0.16062605	-0.68973731	1.4118155	0.16356912	-0.76038999	1.442126	-0.0089163729	-0.80030259	1.0965148	-0.23131879	-0.73198034	1.056394	0.22567996	-0.66633617	0.88831217	-0.2525458	-0.52504247	0.91922365	0.24964037
137	0.544	-0.37082258	0.066775741	-0.13358917	-0.73671184	0.040613372	0.054272614	-0.50508698	0.089735195	-0.13901563	-0.87873735	0.053676702	0.081679264	-0.48543904	0.11029315	-0.058467065	-0.8568865	0.081050697	-0.0014895053	-0.55807256	0.056104796	-0.082943399	-0.92681523	0.028467693	0.030947339	-0.49463005	0.48196306	-0.15279002	-0.77346257	0.44256879	0.13286832	-0.4656517	0.45762746	-0.035925595	-0.76144473	0.44733637	0.002549999	-0.64528845	0.83738676	-0.19138111	-0.71030365	0.85322006	0.19060693	-0.60107155	0.94292168	-0.11687576	-0.62289497	0.94281941	0.12798448	-0.81916307	0.96018512	-0.0049716072	-0.66199722	1.4122615	-0.16066409	-0.68482163	1.4109243	0.16349444	-0.75548522	1.4411326	-0.0089857441	-0.79680403	1.0959255	-0.23226083	-0.72523625	1.0551414	0.22606668	-0.66339554	0.88718216	-0.25378738	-0.51645159	0.92039399	0.24845647
138	0.548	-0.35338028	0.066556183	-0.13148966	-0.73676785	0.040553857	0.054222659	-0.4883274	0.087796169	-0.13899414	-0.87884569	0.053752389	0.081689435	-0.46996	0.10924751	-0.058150644	-0.85672016	0.080969538	-0.0016731987	-0.54130511	0.053883564	-0.083376309	-0.92684845	0.028502522	0.030812196	-0.48869468	0.48033348	-0.15304081	-0.77218283	0.44188859	0.13278378	-0.46020014	0.45647402	-0.035936507	-0.75898905	0.4468038	0.0022765792	-0.63908635	0.83650758	-0.19137424	-0.70661144	0.85242852	0.19047362	-0.59522186	0.94184359	-0.1166333	-0.61853056	0.9417749	0.12820646	-0.81385674	0.95967518	-0.0051575451	-0.65711358	1.4110268	-0.1607309	-0.67985748	1.4099649	0.16341813	-0.75057276	1.4400943	-0.0090540346	-0.79295445	1.0952492	-0.2327037	-0.71850404	1.0538467	0.22646085	-0.66048996	0.8859734	-0.25503037	-0.50790993	0.92150685	0.24726748
139	0.552	-0.33607762	0.066269019	-0.12916587	-0.73676367	0.040512081	0.054222809	-0.47160662	0.08604814	-0.13902424	-0.87883891	0.053819677	0.081642337	-0.45460462	0.10834172	-0.057960933	-0.85652842	0.080880629	-0.0018509677	-0.52467232	0.051962171	-0.083824831	-0.92687874	0.02854478	0.030666433	-0.48278734	0.47858613	-0.15331919	-0.77104317	0.4411898	0.13274599	-0.45487486	0.45518638	-0.035971344	-0.75640474	0.4462148	0.0019780081	-0.63297337	0.83553698	-0.19134348	-0.70289471	0.85163288	0.19032743	-0.58929734	0.94071672	-0.11636227	-0.61417886	0.94071192	0.12843345	-0.8076611	0.95886317	-0.005643643	-0.65238683	1.4097245	-0.16082566	-0.67485686	1.4089428	0.16334248	-0.7456562	1.4390086	-0.0091209386	-0.78861711	1.0944723	-0.232458	-0.71175612	1.0525041	0.22683863	-0.65764768	0.88468536	-0.25627652	-0.49941907	0.92256212	0.24607531
140	0.556	-0.31895954	0.065918045	-0.12664893	-0.73674156	0.040470831	0.054245505	-0.4549494	0.084489406	-0.13911584	-0.87869917	0.053861488	0.081511705	-0.43932999	0.10756981	-0.057921015	-0.8563285	0.080782518	-0.0020174964	-0.50814274	0.050334898	-0.084291263	-0.9268971	0.028599985	0.030509014	-0.47689172	0.47673897	-0.15363647	-0.76981642	0.44049065	0.13277714	-0.44966713	0.45376058	-0.036017621	-0.75365771	0.44556024	0.0016677445	-0.62699541	0.83446952	-0.19130218	-0.69917682	0.85082855	0.19019591	-0.58327195	0.93954044	-0.11606215	-0.60982067	0.9396349	0.12866564	-0.8008183	0.95762476	-0.0066073903	-0.64766726	1.4083553	-0.16092416	-0.66983008	1.4078678	0.16326936	-0.74073992	1.4378738	-0.009186995	-0.7839881	1.0935946	-0.23182606	-0.70498554	1.0511133	0.22719161	-0.65485646	0.88331692	-0.25751322	-0.49097944	0.92355897	0.24487828
141	0.56	-0.30204307	0.065541491	-0.12398222	-0.73673822	0.04040503	0.054264005	-0.43838525	0.083113153	-0.13925879	-0.87848588	0.053870999	0.08131286	-0.42411741	0.10693369	-0.058024196	-0.85613061	0.080672863	-0.0021748424	-0.49173758	0.048988179	-0.084853602	-0.92688168	0.028676897	0.030312419	-0.47101	0.47481259	-0.1539882	-0.76810123	0.43986105	0.13290714	-0.4445668	0.45218977	-0.036067923	-0.75071908	0.4448333	0.0013580645	-0.62099752	0.8333138	-0.19124288	-0.69544131	0.84998302	0.19006505	-0.57715684	0.93831353	-0.11573478	-0.60546309	0.93854528	0.12890326	-0.7937248	0.955969	-0.0080752082	-0.64280488	1.4069229	-0.16100584	-0.66478296	1.4067484	0.16320041	-0.73582561	1.4366903	-0.0092546244	-0.77948501	1.0926256	-0.23143822	-0.69819843	1.0496761	0.22752121	-0.65205642	0.88186941	-0.25872438	-0.48258788	0.92449432	0.24366824
142	0.564	-0.28532658	0.065191437	-0.12121113	-0.73676998	0.040293	0.054263994	-0.42194539	0.081912206	-0.13944535	-0.87830092	0.053868719	0.081087511	-0.4089705	0.10643976	-0.058246206	-0.85593546	0.080550822	-0.0023297641	-0.47552205	0.047919606	-0.085660516	-0.92681005	0.02878198	0.030035672	-0.46517294	0.47281679	-0.15434228	-0.76543438	0.4393971	0.13304698	-0.43956387	0.45046299	-0.036121514	-0.7475998	0.44403833	0.0010524984	-0.61478148	0.83209006	-0.19114373	-0.69166656	0.84908129	0.18989992	-0.57097024	0.93703222	-0.11538005	-0.6011088	0.93744239	0.12913925	-0.7863914	0.95397959	-0.0099438538	-0.63781406	1.4054372	-0.16107932	-0.6597157	1.4055887	0.16313831	-0.7309115	1.4354594	-0.0093283693	-0.7753474	1.0915776	-0.23167168	-0.69140231	1.0481951	0.22782851	-0.64916352	0.88035197	-0.25990377	-0.47424029	0.92536261	0.24243635
143	0.568	-0.26882006	0.064902823	-0.11836878	-0.73681695	0.040142392	0.054260971	-0.40564723	0.080882781	-0.13967705	-0.87821794	0.053893831	0.080886847	-0.39391093	0.10609759	-0.058548198	-0.85573868	0.080419294	-0.0024855409	-0.45957939	0.047140745	-0.086880549	-0.92669944	0.028907779	0.029709189	-0.45939835	0.47074678	-0.15466442	-0.7617244	0.43907153	0.13287754	-0.43464511	0.44857024	-0.036177649	-0.74436794	0.44318886	0.00075725485	-0.60833126	0.83081058	-0.19099257	-0.68786004	0.84814459	0.18968418	-0.56473107	0.93569114	-0.11500492	-0.59675372	0.93632306	0.12936661	-0.77845028	0.95170879	-0.012099147	-0.63283941	1.4039069	-0.16117003	-0.6546232	1.4043876	0.16308565	-0.725996	1.4341819	-0.0094119193	-0.77144803	1.0904568	-0.23233169	-0.68460021	1.0466722	0.2281104	-0.64611364	0.87877686	-0.26104869	-0.46593913	0.92615948	0.24118283
